<svg xmlns="http://www.w3.org/2000/svg" viewBox="0 0 727.95 875.66"><g id="Capa_2" data-name="Capa 2"><g id="Capa_1-2" data-name="Capa 1"><g opacity="0.15"><path d="M218.27,136.61Q109.16,325.11,0,513.58v-361Q30.8,99.43,61.62,46.25c30.61-52.81,101.06-62,143.48-19.17C233.65,55.93,239.07,100.68,218.27,136.61Z"/><path d="M316.41,209.61c11.16,18.45,21.76,35.91,32.29,53.41Q469.18,463.47,589.51,664c2.84,4.74,5.18,5.24,10.34,3.84A101.51,101.51,0,0,1,720,726.11c19.7,46.54,1.71,100.7-42.08,126.74-76.64,45.57-175.56,20.8-221.89-56q-110.37-183-220.25-366.35c-7.16-11.92-14.27-23.88-21.63-35.69-1.93-3.09-2-5.4-.1-8.61C248,327.77,281.85,269.28,316.41,209.61Z"/></g></g></g></svg>