<svg xmlns="http://www.w3.org/2000/svg" viewBox="0 0 74.34 74.34"><g id="Capa_2" data-name="Capa 2"><g id="Capa_1-2" data-name="Capa 1"><path d="M73.25,65h-.11V62.43a14.31,14.31,0,0,0-7.38-12.52,14.2,14.2,0,0,0-1.84-2.26L60.78,44.5l-1-6.9a1.09,1.09,0,0,0,0-2.18h-.27l-.54-3.77a1.09,1.09,0,0,0,0-2.18h-.27l-.54-3.78a1.09,1.09,0,0,0,0-2.17h-.27l-.24-1.67a3.53,3.53,0,0,0-1-2l-1.13-1.14a3.5,3.5,0,0,0-4.94,0l-1.7,1.71a6.16,6.16,0,0,1-8.67,0L35,15.33a6.13,6.13,0,0,1,0-8.66L36.71,5a2.3,2.3,0,0,0,0-3.24,5.9,5.9,0,0,0-8.35,0L19,11.08h0l-4.33,4.33-.08-.08a1.12,1.12,0,0,0-.77-.32,1.1,1.1,0,0,0-.77.32l-3.41,3.4h0L8,20.44a5.91,5.91,0,0,0,0,8.34L24.59,45.42a6.33,6.33,0,0,1-1.85.28H15.52a6.14,6.14,0,0,1-6.13-6.13v-2.4A2.28,2.28,0,0,0,7.1,34.88a5.9,5.9,0,0,0-5.9,5.9V60.13H1.09A1.09,1.09,0,0,0,0,61.22v7.22a5.91,5.91,0,0,0,5.9,5.9H25.37a1.09,1.09,0,0,0,0-2.18H21.42V68.44a3.39,3.39,0,0,0-.89-2.5c-1-1-2.66-1-4.38-1h-14V62.31H28.47a1.3,1.3,0,0,1,1.17.73l1.08,2.15a3.48,3.48,0,0,0,3.13,1.93H72.16v1.32a3.73,3.73,0,0,1-3.72,3.72H29.73a1.09,1.09,0,1,0,0,2.18H68.44a5.9,5.9,0,0,0,5.9-5.9V66A1.08,1.08,0,0,0,73.25,65ZM71,62.43V65H43.07V63.63a3.73,3.73,0,0,1,3.72-3.72H54a5.9,5.9,0,0,0,4.57-9.63h.24A12.16,12.16,0,0,1,71,62.43ZM31,37.17a1.32,1.32,0,0,1,1.32-1.32H34a1.3,1.3,0,0,1,.79.27l1.11.82-.66.66a1.09,1.09,0,1,0,1.54,1.54l.88-.88,3.05,2.29-.66.66a1.09,1.09,0,1,0,1.54,1.54l.88-.88,3,2.29-.66.66a1.09,1.09,0,1,0,1.54,1.54l.88-.88,3.5,2.63H46a3.74,3.74,0,0,1-2.23-.75L31,37.83ZM53,19.89a1.34,1.34,0,0,1,.93.38L55,21.41a1.31,1.31,0,0,1,.37.74l.2,1.37h-.93a1.09,1.09,0,1,0,0,2.18h1.24l.54,3.77H55.5a1.09,1.09,0,0,0,0,2.18h1.24l.54,3.78h-.93a1.09,1.09,0,1,0,0,2.17h1.24l.62,4.34-3.36-3.36a3.76,3.76,0,0,1-1.05-2.11L51.55,20.74l.47-.47a1.32,1.32,0,0,1,.93-.38ZM49.62,22.6l2,14.18a5.93,5.93,0,0,0,1.67,3.34l8.25,8.25a14.47,14.47,0,0,0-2.74-.26H54.37l-5.58-4.19a1.09,1.09,0,0,0-1.56-1.51l-.2.19L44,40.31a1.08,1.08,0,0,0,0-1.51,1.1,1.1,0,0,0-1.54,0l-.19.2-3-2.29A1.09,1.09,0,0,0,37.6,35.2l-.19.19-1.35-1a3.59,3.59,0,0,0-1.56-.65l5.22-10.79a8.32,8.32,0,0,0,9.9-.33ZM29.9,3.27a3.72,3.72,0,0,1,5.27,0,.12.12,0,0,1,0,.16l-1.7,1.7a8.3,8.3,0,0,0-.72,10.92l-1,1a3.73,3.73,0,0,1-5.27,0l-5.18-5.18ZM19.78,13.39,25,18.57a5.9,5.9,0,0,0,8.35,0l.93-.93L38,21.43,32.37,33.11,16.22,17ZM8.4,24.61A3.69,3.69,0,0,1,9.49,22l.93-.93,9.44,9.43c.15.16.31.31.46.45.85.85,1.74,1.72,1.74,2.27a1.37,1.37,0,0,1-.5.84l-2.63,2.64L9.49,27.24A3.71,3.71,0,0,1,8.4,24.61Zm12.07,13.6,2.63-2.63a3.36,3.36,0,0,0,1.14-2.39c0-1.46-1.17-2.6-2.39-3.81l-.45-.44L12,19.5l1.87-1.86.08.08L30.44,34.25a3.49,3.49,0,0,0-1.57,2.92v2.4a6.14,6.14,0,0,1-2.28,4.77ZM7.1,37.05a.12.12,0,0,1,.12.12v2.4a8.33,8.33,0,0,0,7.21,8.24V49.2a3.73,3.73,0,0,1-3.72,3.72H3.38V40.78A3.73,3.73,0,0,1,7.1,37.05ZM3.38,55.1h7.33a5.91,5.91,0,0,0,5.9-5.9V47.88H22l4.27,12.25H3.38Zm12.14,12h.65c1.2,0,2.44,0,2.83.37a1.38,1.38,0,0,1,.24,1v3.72H5.9a3.73,3.73,0,0,1-3.72-3.72V67.12Zm17.15-2.9-1.08-2.15a3.44,3.44,0,0,0-3.05-1.93l-4.32-12.4a8,8,0,0,0,2.72-1,.59.59,0,0,0,.17-.1A8.31,8.31,0,0,0,31,40.51L42.45,49.1A5.89,5.89,0,0,0,46,50.29h8a3.72,3.72,0,0,1,0,7.44H46.79a5.91,5.91,0,0,0-5.9,5.9V65h-7a1.31,1.31,0,0,1-1.18-.73Z" fill="#d6d6d6"/></g></g></svg>