<svg xmlns="http://www.w3.org/2000/svg" viewBox="0 0 79.91 67.95"><g id="Capa_2" data-name="Capa 2"><g id="Capa_1-2" data-name="Capa 1"><path d="M70.35,11C64.73,6,56.77,2.54,47.93,1.14A86,86,0,0,0,25.14.47c-7.57.88-13.49,3-17.12,6.09l-.56.5C2.5,10.93-.08,15.39,0,20,.07,24,1.31,27,3.81,29.34c2.18,2,5,3.29,8,4.61,3.74,1.65,7.61,3.35,10.66,6.72s4.14,6.91,5.12,10.26a24.1,24.1,0,0,0,3.78,8.45c2.33,3,5.84,5.38,11,7.39A18.18,18.18,0,0,0,49,68a24.46,24.46,0,0,0,11.2-2.86c4.86-2.55,11.61-7.94,16.21-19.22a32.81,32.81,0,0,0,3.46-14.46A26.64,26.64,0,0,0,70.35,11ZM59.14,63c-5.31,2.77-11.23,3.36-15.83,1.57-10.37-4-11.77-8.78-13.38-14.29-1-3.44-2.16-7.33-5.64-11.18s-7.69-5.64-11.48-7.3C7.05,29.24,2.5,27.25,2.38,19.93a10.39,10.39,0,0,1,1.35-5.18c0,.25,0,.51,0,.76C3.7,19.8,5,23,7.58,25.38c2.28,2.06,5.27,3.22,8.43,4.45,3.86,1.51,7.85,3.06,10.87,6.4s4,7,5,10.58c.85,3.21,1.65,6.24,3.85,8.88,2.45,3,6.21,4.85,11.82,6a24.31,24.31,0,0,0,18.14-3.46A28,28,0,0,1,59.14,63ZM74.39,44.67a1.86,1.86,0,0,0-.1.2.49.49,0,0,0,0,.11,29.46,29.46,0,0,1-7.55,9.53A22.34,22.34,0,0,1,52.5,59.8,22.73,22.73,0,0,1,48,59.34c-10.94-2.2-12.22-7-13.85-13.14-1-3.65-2.06-7.78-5.48-11.56s-7.85-5.49-11.78-7c-6-2.35-10.79-4.21-10.79-12.11A9.13,9.13,0,0,1,9.56,8.37c4.55-3.88,13.5-6,24.11-6A90.26,90.26,0,0,1,47.56,3.49C56,4.82,63.5,8.1,68.79,12.74a24.31,24.31,0,0,1,8.74,18.67,30.3,30.3,0,0,1-3.14,13.26Z" fill="#d6d6d6"/><path d="M73,32.72a1.19,1.19,0,0,0-1.29,1.08,24.09,24.09,0,0,1-7.63,15.45C62.51,48,61.9,46,61,43a60.46,60.46,0,0,0-3.65-9.6c-1.8-3.7-5.16-6.84-8.64-9.31,2.63-1.53,9-4.42,19-4a20,20,0,0,1,3.8,8.46,1.18,1.18,0,0,0,1.16,1h.22a1.19,1.19,0,0,0,1-1.39,22.29,22.29,0,0,0-4.56-9.88l-.06-.07a26.55,26.55,0,0,0-8-6.64C55.28,8.3,48,6.45,38.19,5.72,29,5,21.44,6,15.25,8.79c-2.89,1.29-4.83,3.07-5.62,5.11l0,0a6,6,0,0,0-.37,1.61A7.49,7.49,0,0,0,12.67,22a16.14,16.14,0,0,0,3.76,1.92,1.19,1.19,0,0,0,.86-2.22,14.07,14.07,0,0,1-3.24-1.63,5.26,5.26,0,0,1-2.44-4.33c0-.07,0-.16,0-.25a76.49,76.49,0,0,1,14.93,1.6c0,.11,0,.21,0,.32a6.06,6.06,0,0,0,11.2,3.23c4,1.76,14,6.77,17.42,13.75a59.57,59.57,0,0,1,3.51,9.26c.93,3.06,1.66,5.43,3.47,7.09A19.09,19.09,0,0,1,52.4,54a15.48,15.48,0,0,1-7.08-1.29A8.85,8.85,0,0,1,41.6,50a13.68,13.68,0,0,1-1.82-4.72L39.71,45c-1-4-2.33-8.17-4.82-11.74-2.7-3.87-6.87-7.07-12.39-9.51a1.19,1.19,0,1,0-1,2.17c5.12,2.26,9,5.19,11.4,8.7,2.28,3.26,3.49,7.2,4.47,11l.06.26a15.78,15.78,0,0,0,2.2,5.51,11.32,11.32,0,0,0,4.68,3.58,17.65,17.65,0,0,0,7.28,1.52l.87,0a21.22,21.22,0,0,0,12.37-4.73h0l0,0A26,26,0,0,0,74.06,34,1.18,1.18,0,0,0,73,32.72Zm-36.67-15a3.36,3.36,0,0,1-.69,1.89,3.69,3.69,0,0,1-6.68-2.12,4.17,4.17,0,0,1,.53-2,3.69,3.69,0,0,1,6.85,1.91,2.44,2.44,0,0,1,0,.27Zm2.3.73a5.55,5.55,0,0,0,.09-1,6.08,6.08,0,0,0-11.55-2.63,81.13,81.13,0,0,0-14.21-1.67A10.58,10.58,0,0,1,16.22,11C22,8.36,29.17,7.42,38,8.09c9.43.71,16.42,2.46,22,5.52a24.78,24.78,0,0,1,5.49,4.05c-10.67,0-17,3.55-19,4.93a59.24,59.24,0,0,0-7.89-4.17Z" fill="#d6d6d6"/></g></g></svg>