<svg xmlns="http://www.w3.org/2000/svg" viewBox="0 0 65.25 65.19"><g id="Capa_2" data-name="Capa 2"><g id="Capa_1-2" data-name="Capa 1"><path d="M7.2,31.6a1,1,0,1,0,0,1.91h1a1,1,0,0,0,0-1.91Z" fill="#d6d6d6"/><path d="M23.68,33.51a1,1,0,1,0,0-1.91H18.89a1,1,0,1,0,0,1.91Z" fill="#d6d6d6"/><path d="M12.56,34.34a1,1,0,0,0,0,1.92h1a1,1,0,0,0,0-1.92Z" fill="#d6d6d6"/><path d="M58.88,57.46a.94.94,0,0,0-1,.87l-.34,4a1.07,1.07,0,0,1-1.06,1H41.53a7.58,7.58,0,0,0,2.57-5.7v-1.2a4.06,4.06,0,0,0-2.74-3.83,3,3,0,0,0,.3-1.3V49.9a3,3,0,0,0-.75-2A2.82,2.82,0,0,0,41.66,46v-.56a2.64,2.64,0,0,0-.14-.84,4.22,4.22,0,0,0,1.74-4.87L43,39A4,4,0,0,0,44.1,36.3V35.1a7.62,7.62,0,0,0-7.61-7.61H17a1,1,0,0,0,0,1.92H36.49a5.7,5.7,0,0,1,5.7,5.69v1.2A2.14,2.14,0,0,1,40,38.44h-36A2.15,2.15,0,0,1,1.91,36.3V35.1a5.7,5.7,0,0,1,5.7-5.69h5.33a1,1,0,1,0,0-1.92H7.61A7.62,7.62,0,0,0,0,35.1v1.2A4.06,4.06,0,0,0,1.07,39l-.23.71a4.22,4.22,0,0,0,1.74,4.87,2.63,2.63,0,0,0-.13.84V46a2.81,2.81,0,0,0,.74,1.91,3,3,0,0,0-.74,2v1.35a3,3,0,0,0,.29,1.3A4.06,4.06,0,0,0,0,56.38v1.2a7.61,7.61,0,0,0,7.61,7.61H56.45a3,3,0,0,0,3-2.74l.33-4a.94.94,0,0,0-.87-1ZM5.43,46.91H5.25A.89.89,0,0,1,4.36,46v-.56a1.36,1.36,0,0,1,0-.2A4.33,4.33,0,0,0,6,45.14l2.05-.58a2.32,2.32,0,0,1,1.58.11l1.47.66a4.34,4.34,0,0,0,1.73.37,4.29,4.29,0,0,0,2-.52l1.52-.83a2.3,2.3,0,0,1,2-.09l1.94.84a4.35,4.35,0,0,0,3.36,0l1.94-.84a2.32,2.32,0,0,1,2,.09l1.51.83a4.25,4.25,0,0,0,3.76.15l1.47-.66A2.33,2.33,0,0,1,36,44.56l2.06.58a4.28,4.28,0,0,0,1.63.12,1.36,1.36,0,0,1,0,.2V46a.89.89,0,0,1-.89.89ZM2.66,40.34l.07-.21a3.87,3.87,0,0,0,1.33.23H40a4,4,0,0,0,1.34-.23l.06.21a2.32,2.32,0,0,1-2.84,2.95l-2.05-.57a4.2,4.2,0,0,0-2.88.21l-1.47.65a2.3,2.3,0,0,1-2.06-.08l-1.52-.83a4.19,4.19,0,0,0-3.7-.17l-2,.84a2.35,2.35,0,0,1-1.84,0l-1.94-.84a4.21,4.21,0,0,0-3.71.17L14,43.5a2.3,2.3,0,0,1-2.06.08l-1.47-.65a4.18,4.18,0,0,0-2.87-.21l-2.06.57a2.32,2.32,0,0,1-2.84-2.95ZM1.91,57.58v-1.2a2.15,2.15,0,0,1,2.15-2.14H8.79a1,1,0,1,0,0-1.91H5.43a1.07,1.07,0,0,1-1.07-1.08V49.9a1.07,1.07,0,0,1,1.07-1.07H8.66l2.75,3.4a1,1,0,0,0,.74.35,1,1,0,0,0,.6-.21A1,1,0,0,0,12.9,51l-1.78-2.2h10.7l-4.54,6.31a.62.62,0,0,1-.51.27.63.63,0,0,1-.53-.24l-.78-1A1,1,0,1,0,14,55.4l.79,1a2.54,2.54,0,0,0,2,1h.07a2.55,2.55,0,0,0,2-1.07l5.34-7.43h14.5a1.07,1.07,0,0,1,1.07,1.07v1.35a1.07,1.07,0,0,1-1.07,1.08H27.77a1,1,0,0,0,0,1.91H40a2.14,2.14,0,0,1,2.15,2.14v1.2a5.71,5.71,0,0,1-5.69,5.7H7.61a5.71,5.71,0,0,1-5.7-5.7Z" fill="#d6d6d6"/><path d="M63.34,12.11,61.59,9.23A2.5,2.5,0,0,0,59.46,8H46.22V1.58A1.58,1.58,0,0,0,44.64,0h-3a1.59,1.59,0,0,0-1.59,1.58V8H27.46a2.49,2.49,0,0,0-2.13,1.19l-1.76,2.88a2.31,2.31,0,0,0-1.9,2.28v2.08a2.31,2.31,0,0,0,1.83,2.26l.49,6a1,1,0,0,0,1,.88H25a1,1,0,0,0,.87-1l-.48-5.75H61.15l-.73,8.7H45.94a1,1,0,0,0,0,1.91H60.26L58.72,47.84H44.34a1,1,0,0,0,0,1.92H58.56l-.37,4.49a1,1,0,0,0,.87,1h.08a1,1,0,0,0,1-.88l3-35.63a2.32,2.32,0,0,0,2.18-2.31V14.39a2.31,2.31,0,0,0-1.91-2.28ZM59.46,10a.61.61,0,0,1,.5.28l1.12,1.84H46.22V10ZM42,10h2.32v2.12H42Zm0-8h2.32V8H42ZM27,10.23a.61.61,0,0,1,.5-.28H40.07v2.12H25.84Zm36.38,6.24a.4.4,0,0,1-.4.4H24a.4.4,0,0,1-.4-.4V14.39A.4.4,0,0,1,24,14h39a.4.4,0,0,1,.4.4Z" fill="#d6d6d6"/></g></g></svg>