<svg xmlns="http://www.w3.org/2000/svg" viewBox="0 0 56.85 73.17"><g id="Capa_2" data-name="Capa 2"><g id="Capa_1-2" data-name="Capa 1"><path d="M38.46,71H27.22a2.52,2.52,0,0,1-2.52-2.52V60.37H35.48a1.07,1.07,0,1,0,0-2.14H23.61a1,1,0,0,1-1-1L20.29,12.81a1.08,1.08,0,0,0-.15-.49L16.72,6.51H50.19l-3,5.07a1.07,1.07,0,0,0,1.84,1.08L53,6a1,1,0,0,0,.15-.54V1.85A1.85,1.85,0,0,0,51.29,0H15.62a1.84,1.84,0,0,0-1.84,1.85V5.44a1.11,1.11,0,0,0,.14.54l4.24,7.21,2.27,44.17a3.2,3.2,0,0,0,2.13,2.83v8.32a4.66,4.66,0,0,0,4.66,4.66H38.46a1.07,1.07,0,1,0,0-2.14ZM51,2.14V4.37H15.92V2.14Z" fill="#d6d6d6"/><path d="M56.21,16.08a2.38,2.38,0,0,0-1.72-.74H38.31A2.35,2.35,0,0,0,36,17.85l2,30.66a1.07,1.07,0,1,0,2.13-.14L38.44,23H54.36L52.05,58.34a2.3,2.3,0,0,1-2.29,2.13H43a2.29,2.29,0,0,1-2.28-2.13l-.36-5.41a1.07,1.07,0,0,0-2.14.14l.36,5.4a4.42,4.42,0,0,0,2.67,3.78V69.9a3.27,3.27,0,0,0,3.27,3.27h3.68a3.27,3.27,0,0,0,3.27-3.27V62.25a4.42,4.42,0,0,0,2.67-3.78l2.66-40.63a2.38,2.38,0,0,0-.63-1.76ZM49.37,69.9A1.13,1.13,0,0,1,48.24,71H44.56a1.14,1.14,0,0,1-1.13-1.13V62.61h5.94ZM38.3,20.82l-.2-3.11a.22.22,0,0,1,.06-.16.18.18,0,0,1,.15-.07H54.49a.16.16,0,0,1,.15.07.18.18,0,0,1,.06.16l-.2,3.11Z" fill="#d6d6d6"/><path d="M15.92,49.08v-8.5a2.12,2.12,0,0,0-2.12-2.12h-.1v-1.8a1.07,1.07,0,1,0-2.14,0v1.8H5.84V31.39A11.43,11.43,0,0,0,11.37,26a19.07,19.07,0,0,1,.19,2.73v3.33a1.07,1.07,0,0,0,2.14,0V28.76a21.79,21.79,0,0,0-1.93-9,2.45,2.45,0,0,0-4.11-.57L6.1,21a10.25,10.25,0,0,0-2.41,6.59V38.46H3.6a2.12,2.12,0,0,0-2.12,2.12v8.5A2.24,2.24,0,0,0,0,51.18v3.88H0v4.2a1.07,1.07,0,1,0,2.14,0V56.13H15.26v12A2.92,2.92,0,0,1,12.34,71H5.06a2.92,2.92,0,0,1-2.92-2.92V63.83a1.07,1.07,0,1,0-2.14,0v4.28a5.07,5.07,0,0,0,5.06,5.06h7.28a5.07,5.07,0,0,0,5.06-5.06V51.18a2.24,2.24,0,0,0-1.48-2.1ZM7.74,22.42,9.3,20.58a.32.32,0,0,1,.28-.11.32.32,0,0,1,.24.18c.21.48.41,1,.58,1.44l-.28,1.14A9.24,9.24,0,0,1,5.84,29V27.63a8.09,8.09,0,0,1,1.9-5.21ZM3.62,40.6H13.78v8.34H3.62ZM2.14,54V51.18a.11.11,0,0,1,.1-.1H15.15a.11.11,0,0,1,.11.1V54Z" fill="#d6d6d6"/></g></g></svg>