<svg xmlns="http://www.w3.org/2000/svg" viewBox="0 0 67.64 67.68"><g id="Capa_2" data-name="Capa 2"><g id="Capa_1-2" data-name="Capa 1"><path d="M22,32.24a3.52,3.52,0,0,0-3.66,3.5v3.94H14.25a3.51,3.51,0,1,0-.07,7H18.3v4.05a3.51,3.51,0,1,0,7,.07V46.69h3.94a3.51,3.51,0,1,0-.08-7H25.31V35.82A3.53,3.53,0,0,0,22,32.24Zm7.21,9.43a1.57,1.57,0,0,1,1.6,1.45,1.52,1.52,0,0,1-1.52,1.59H24.32a1,1,0,0,0-1,1v5.11a1.52,1.52,0,0,1-1.59,1.52,1.57,1.57,0,0,1-1.45-1.59v-5a1,1,0,0,0-1-1H14.18a1.52,1.52,0,0,1-1.52-1.59,1.57,1.57,0,0,1,1.59-1.45h5a1,1,0,0,0,1-1V35.74a1.53,1.53,0,0,1,1.59-1.52,1.58,1.58,0,0,1,1.45,1.6v4.85a1,1,0,0,0,1,1Z" fill="#d6d6d6"/><path d="M57,46.49a10,10,0,0,0-2.27.25v-5a9.81,9.81,0,0,0-.32-2.48,1,1,0,0,0-1.22-.71,1,1,0,0,0-.7,1.22,7.66,7.66,0,0,1,.26,2v5.61a10.59,10.59,0,0,0-2.67,1.69H37.6v-7.3a7.59,7.59,0,0,1,12.8-5.53,1,1,0,1,0,1.36-1.44,9.53,9.53,0,0,0-6.57-2.61,9.35,9.35,0,0,0-2.38.3v-9a5.1,5.1,0,0,0-2.41-4.34l-3.52-2.21a3.11,3.11,0,0,1-1.47-2.66v-2h0A2.32,2.32,0,0,0,37.73,10V2.31A2.32,2.32,0,0,0,35.42,0h-28A2.31,2.31,0,0,0,5.08,2.31V4a1,1,0,1,0,2,0V2.31A.33.33,0,0,1,7.39,2h3.86v8.34H7.39A.33.33,0,0,1,7.06,10V8.64a1,1,0,1,0-2,0V10A2.31,2.31,0,0,0,7.39,12.3h0v2a3.1,3.1,0,0,1-1.48,2.66L2.4,19.14A5.12,5.12,0,0,0,0,23.48V48.34a1,1,0,0,0,2,0v-19H27.84a1,1,0,1,0,0-2H2V23.48a3.14,3.14,0,0,1,1.47-2.66L7,18.61a5.09,5.09,0,0,0,2.4-4.34V12.32h24v1.95a5.09,5.09,0,0,0,2.4,4.34l3.52,2.21a3.14,3.14,0,0,1,1.47,2.66v3.93H32.46a1,1,0,0,0,0,2h8.36v3.86a9.58,9.58,0,0,0-5.21,8.52V57.16H2V53a1,1,0,0,0-2,0v9.6a5.13,5.13,0,0,0,5.13,5.12H37.68a5.08,5.08,0,0,0,3.13-1.06,9.48,9.48,0,0,0,4.38,1.06A9.58,9.58,0,0,0,51,65.75,10.47,10.47,0,0,0,57,67.68a10.6,10.6,0,1,0,0-21.19ZM23.5,10.32H19.36V2H23.5Zm2-8.34h4.14v8.34H25.49Zm10.26.33V10a.33.33,0,0,1-.33.33h-3.8V2h3.8a.33.33,0,0,1,.33.33ZM13.23,2h4.15v8.34H13.23Zm35.2,55.1a8.64,8.64,0,0,1,0-.88H65.61a8.73,8.73,0,0,1,0,1.77H48.47a8.7,8.7,0,0,1,0-.89Zm16.74-2.86H48.92a8.62,8.62,0,0,1,16.25,0ZM37.68,65.7H5.13A3.14,3.14,0,0,1,2,62.56V59.14H35.67A9.54,9.54,0,0,0,39,65.41a3.15,3.15,0,0,1-1.33.29Zm-.08-7.59V51.05H48.34a10.57,10.57,0,0,0,1.07,13.37A7.59,7.59,0,0,1,37.6,58.11ZM57,65.7A8.62,8.62,0,0,1,48.92,60H65.17A8.63,8.63,0,0,1,57,65.7Z" fill="#d6d6d6"/></g></g></svg>