<svg xmlns="http://www.w3.org/2000/svg" viewBox="0 0 82.76 64.24"><g id="Capa_2" data-name="Capa 2"><g id="Capa_1-2" data-name="Capa 1"><path d="M38.18,37.09A1.21,1.21,0,1,1,37,35.88a1.21,1.21,0,0,1,1.21,1.21Z" fill="#d6d6d6"/><path d="M38.18,43.07A1.21,1.21,0,1,1,37,41.86a1.22,1.22,0,0,1,1.21,1.21Z" fill="#d6d6d6"/><path d="M41.17,40.08A1.21,1.21,0,1,1,40,38.87a1.21,1.21,0,0,1,1.21,1.21Z" fill="#d6d6d6"/><path d="M35.19,40.08A1.22,1.22,0,1,1,34,38.87a1.21,1.21,0,0,1,1.21,1.21Z" fill="#d6d6d6"/><path d="M8.36,41.29h1.78v1.78a1.22,1.22,0,1,0,2.43,0V41.29h1.78a1.21,1.21,0,0,0,0-2.42H12.57V37.09a1.22,1.22,0,0,0-2.43,0v1.78H8.36a1.21,1.21,0,1,0,0,2.42Z" fill="#d6d6d6"/><path d="M20,42.8h1.87a1.21,1.21,0,0,0,0-2.42H20a1.21,1.21,0,1,0,0,2.42Z" fill="#d6d6d6"/><path d="M26.38,42.8h1.87a1.21,1.21,0,1,0,0-2.42H26.38a1.21,1.21,0,0,0,0,2.42Z" fill="#d6d6d6"/><path d="M34.13,10A1.21,1.21,0,1,1,32.92,8.8,1.21,1.21,0,0,1,34.13,10Z" fill="#d6d6d6"/><path d="M80.74,24.05a1.21,1.21,0,0,0-.85,1.49,13.05,13.05,0,0,1,.44,3.35,12.63,12.63,0,0,1-2.11,7,29.34,29.34,0,0,0-4.65,11.71l-.09.57a.42.42,0,0,1-.41.35H68.88V40.89a5.94,5.94,0,0,0,4.72-5.81,1.21,1.21,0,1,0-2.42,0,3.52,3.52,0,0,1-7,0,1.21,1.21,0,0,0-2.42,0,5.94,5.94,0,0,0,4.72,5.81v7.64H62.26a.41.41,0,0,1-.41-.35l-.13-.83A28,28,0,0,0,57.15,36,12.57,12.57,0,0,1,55,28.75,12.76,12.76,0,0,1,67.36,16.23a12.6,12.6,0,0,1,10.09,4.62,1.22,1.22,0,1,0,1.88-1.54,15,15,0,0,0-10.45-5.46V2.77A2.78,2.78,0,0,0,66.1,0H25.68a2.77,2.77,0,0,0-2.77,2.77V7.71a1.21,1.21,0,1,0,2.42,0V2.77a.35.35,0,0,1,.35-.35H66.1a.35.35,0,0,1,.35.35V13.85a14.17,14.17,0,0,0-2,.29V6.26A1.86,1.86,0,0,0,62.62,4.4H29.17a1.86,1.86,0,0,0-1.86,1.86V33.18h-2V13.36a1.21,1.21,0,1,0-2.42,0V16h-7a1.22,1.22,0,0,0,0,2.43h7V20H19.44a1.64,1.64,0,0,0-1.42.84v0h-5.7l0,0A1.62,1.62,0,0,0,10.87,20H6.71A1.73,1.73,0,0,0,5,21.72V33.45a9.38,9.38,0,0,0-1.62,2.08V21.37a3,3,0,0,1,3-3h3.86a1.22,1.22,0,0,0,0-2.43H6.36A5.43,5.43,0,0,0,.94,21.37V44.59a62,62,0,0,0-.85,6.64c-.5,7.51,1.13,11.82,4.84,12.82a5.48,5.48,0,0,0,1.68.18H24a5.66,5.66,0,0,0,1-.09,2.84,2.84,0,0,0,.72.09H66.1a2.74,2.74,0,0,0,.7-.09,4.12,4.12,0,0,0,.86.09A4.25,4.25,0,0,0,71.91,60v-.19A2.88,2.88,0,0,0,74.28,57V55.32a1.23,1.23,0,0,0,.79-1.14,1.21,1.21,0,0,0-.79-1.13V50.69a2.82,2.82,0,0,0,1.59-2.13L76,48a26.88,26.88,0,0,1,4.28-10.75,15.07,15.07,0,0,0,2-12.34,1.21,1.21,0,0,0-1.48-.85ZM71.41,57.41H63.92a.45.45,0,0,1-.45-.45V55.39h8.39V57a.45.45,0,0,1-.45.45Zm-41.68,0V54.15A4.88,4.88,0,0,0,32,53.76c.61,1.34,1.22,2.56,1.83,3.65Zm.32-5.68a2.35,2.35,0,1,1,2.35-2.35,2.36,2.36,0,0,1-2.35,2.35Zm-9.5-2.35A2.36,2.36,0,1,1,18.2,47a2.35,2.35,0,0,1,2.35,2.35Zm-4.26,4.38a4.77,4.77,0,0,0,6.62-3.6v7.6H14.25a41.12,41.12,0,0,0,2-4Zm-3.64,6.43H22.91a14,14,0,0,0,0,1.62H11.27a15.34,15.34,0,0,0,1.38-1.62Zm13,1.62a.35.35,0,0,1-.35-.35V50.16a4.81,4.81,0,0,0,2,3.13V58a1.86,1.86,0,0,0,1.86,1.86h6.15a17.28,17.28,0,0,0,1.65,2Zm21.72-2H62.62a1.9,1.9,0,0,0,.58-.09l.22,0V60a4.19,4.19,0,0,0,.41,1.83H46.43a8.11,8.11,0,0,0,1-2ZM63.47,53V51h8.39v2ZM62.05,6.82v8.06a15.11,15.11,0,0,0-6.91,22.45,25.48,25.48,0,0,1,4.18,10.4l.13.83a2.86,2.86,0,0,0,1.6,2.13v2.36a1.21,1.21,0,0,0-.79,1.13,1.23,1.23,0,0,0,.79,1.14V57a3.4,3.4,0,0,0,0,.45H48a28.46,28.46,0,0,0,.16-6.18A76.58,76.58,0,0,0,45.77,37.7a9.19,9.19,0,0,0-9-6.81H33.62a5.54,5.54,0,0,0-3.89,1.6V6.82ZM7.4,22.42h3l0,0a1.61,1.61,0,0,0,1.42.83h6.63a1.6,1.6,0,0,0,1.42-.83l0,0h3V33.18H19.73a1.32,1.32,0,0,1-1-.44,5.56,5.56,0,0,0-4.13-1.85H11.48a9.17,9.17,0,0,0-4.08.89Zm-4.89,29A75.22,75.22,0,0,1,4.82,38.33a6.76,6.76,0,0,1,6.63-5h3.17a3.1,3.1,0,0,1,2.32,1,3.77,3.77,0,0,0,2.79,1.25h8.79a3.76,3.76,0,0,0,2.78-1.25,3.1,3.1,0,0,1,2.32-1h3.17a6.77,6.77,0,0,1,6.64,5,75.48,75.48,0,0,1,2.3,13.06c.23,3.4.23,9.44-3,10.31-3.56,1-6.92-5.25-8.77-9.52A4.77,4.77,0,1,0,26,46.85H22.25a4.78,4.78,0,1,0-7.92,5.33c-1.85,4.27-5.21,10.48-8.77,9.52-3-.81-3.34-6.05-3-10.31ZM67.66,61.81A1.83,1.83,0,0,1,65.84,60v-.15h3.65V60a1.83,1.83,0,0,1-1.83,1.83Z" fill="#d6d6d6"/></g></g></svg>