<svg xmlns="http://www.w3.org/2000/svg" viewBox="0 0 65.39 68.92"><g id="Capa_2" data-name="Capa 2"><g id="Capa_1-2" data-name="Capa 1"><path d="M29.93,44.61l-2.07,2.08-4-4L26,40.66a1,1,0,0,0-1.45-1.45l-2.16,2.16a1.76,1.76,0,0,0-.79-.18,1.87,1.87,0,0,0-1.33.56l-12,12a1,1,0,0,0,0,1.45,1,1,0,0,0,1.45,0l11.9-11.91,5.7,5.7L10.72,65.56A4,4,0,0,1,5,65.49,4.1,4.1,0,0,1,5.1,59.8l2-2a1,1,0,0,0-1.45-1.45l-2,2a6.16,6.16,0,0,0-.17,8.56,6,6,0,0,0,4.33,1.88h.07A6,6,0,0,0,12.17,67L28.84,50.34a1.87,1.87,0,0,0,.38-2.12l2.16-2.16a1,1,0,1,0-1.45-1.45Z" fill="#d6d6d6"/><path d="M63.48,27.23a1,1,0,1,0-1.78,1,12.13,12.13,0,0,1,.84,10.39,34.34,34.34,0,0,0-9.18-10.41l4.48-4.48,1.81,1.81a1,1,0,0,0,.72.3,1,1,0,0,0,.73-.3,1,1,0,0,0,0-1.45l-1.81-1.81,1.21-1.2a1,1,0,0,0,0-1.45l-9.43-9.43a1,1,0,0,0-1.44,0,1.83,1.83,0,0,1-.36.26,2.74,2.74,0,0,1-3-.81,2.71,2.71,0,0,1-.81-2.93,1.16,1.16,0,0,1,.26-.39,1,1,0,0,0,0-1.44L41.16.3a1,1,0,0,0-1.45,0l-10,10a1,1,0,0,0,0,1.45l4.59,4.59a1,1,0,0,0,1.44,0,1.23,1.23,0,0,1,.37-.26,2.73,2.73,0,0,1,2.94.81,2.73,2.73,0,0,1,.81,3,1.78,1.78,0,0,1-.25.36,1,1,0,0,0,0,1.44l1.23,1.23-8.8,8.8a1,1,0,0,0,0,1.45,1,1,0,0,0,.72.3,1,1,0,0,0,.73-.3l8.8-8.8,4,3.95-8.8,8.8a1,1,0,0,0,0,1.45,1,1,0,0,0,1.45,0l8.8-8.8L49,31.08a1,1,0,0,0,.73.3,1,1,0,0,0,.72-.3l1.4-1.39a31.63,31.63,0,0,1,9.73,11.68,1,1,0,0,0,.87.6h.06a1.06,1.06,0,0,0,.89-.51A14.11,14.11,0,0,0,63.48,27.23ZM31.88,11l8.55-8.55,3.14,3.13L35,14.16Zm6.18,3,5.36-5.36a5.47,5.47,0,0,0,1.43,2.44,5.38,5.38,0,0,0,2.72,1.49L42,18.17A5.56,5.56,0,0,0,38.06,14ZM49.77,28.91,42,21.1l8.55-8.55,7.81,7.81Z" fill="#d6d6d6"/><path d="M58.48,56.64A1,1,0,1,0,57,58.09l1.64,1.64a4.18,4.18,0,0,1-5.91,5.92L43.08,56a3.47,3.47,0,0,0-4.69-4.7l-.74-.73,5.91-5.91.74.73a3.49,3.49,0,0,0,.61,4.08,3.45,3.45,0,0,0,2.46,1,3.51,3.51,0,0,0,1.63-.4l5.43,5.43A1,1,0,0,0,55.88,54l-6.05-6a1,1,0,0,0-1.45,0,1.42,1.42,0,0,1-2-2,1,1,0,0,0,0-1.45l-2.07-2.08a1,1,0,0,0-1.45,0l-.12.12-2.11-2.11a1,1,0,0,0-1.45,0l-.47.47L13.1,15.34l-.56-4a1,1,0,0,0-.56-.77L5,7.08a1,1,0,0,0-1.18.2L.3,10.78A1,1,0,0,0,.11,12l3.48,7a1.07,1.07,0,0,0,.78.56l4,.56,2.9,2.9a1,1,0,1,0,1.45-1.45L9.58,18.39A1,1,0,0,0,9,18.1l-3.8-.54L2.27,11.71,4.73,9.25l5.85,2.91L11.12,16a1,1,0,0,0,.29.58L37.24,42.38l-1.83,1.84L14.77,23.58A1,1,0,0,0,13.32,25L34,45.67l-.47.47a1,1,0,0,0-.3.72,1.06,1.06,0,0,0,.3.73l2.11,2.1-.12.12a1,1,0,0,0,0,1.45l2.07,2.08a1,1,0,0,0,1.45,0,1.42,1.42,0,0,1,2.43,1,1.39,1.39,0,0,1-.41,1,1,1,0,0,0-.3.73,1,1,0,0,0,.3.72L51.31,67.1a6.23,6.23,0,1,0,8.81-8.82ZM35.66,46.86l3.76-3.75h0l.47-.47L41.27,44l-4.22,4.22Z" fill="#d6d6d6"/></g></g></svg>