<svg xmlns="http://www.w3.org/2000/svg" viewBox="0 0 63.54 64.63"><g id="Capa_2" data-name="Capa 2"><g id="Capa_1-2" data-name="Capa 1"><path d="M0,26.29H0a5.43,5.43,0,0,0,4.39,5.3V53.73a1,1,0,0,0,2.06,0V31.6a5.41,5.41,0,0,0,3.36-2.15,5.41,5.41,0,0,0,8.78,0,5.42,5.42,0,0,0,8.79,0,5.41,5.41,0,0,0,8.78,0,5.41,5.41,0,0,0,8.78,0,5.42,5.42,0,0,0,8.79,0,5.41,5.41,0,0,0,3.36,2.15v4.56a1,1,0,0,0,2.06,0V31.6a5.43,5.43,0,0,0,4.39-5.3,1,1,0,0,0,0-.24L58,.81A1,1,0,0,0,57,0H6.52a1,1,0,0,0-1,.81L0,26.06A1.64,1.64,0,0,0,0,26.29Zm5.42,3.35a3.38,3.38,0,0,1-3.2-2.33h6.4A3.36,3.36,0,0,1,5.42,29.64Zm8.78,0A3.38,3.38,0,0,1,11,27.31h6.4A3.36,3.36,0,0,1,14.2,29.64Zm8.79,0a3.38,3.38,0,0,1-3.21-2.33h6.41A3.38,3.38,0,0,1,23,29.64Zm8.78,0a3.36,3.36,0,0,1-3.2-2.33H35A3.38,3.38,0,0,1,31.77,29.64ZM37.19,2.06H41.8l2,23.19H37.19Zm3.36,27.58a3.38,3.38,0,0,1-3.2-2.33h6.4A3.36,3.36,0,0,1,40.55,29.64Zm8.78,0a3.38,3.38,0,0,1-3.2-2.33h6.4A3.36,3.36,0,0,1,49.33,29.64Zm8.79,0a3.36,3.36,0,0,1-3.2-2.33h6.4A3.38,3.38,0,0,1,58.12,29.64ZM56.19,2.06l5,23.19h-6.6l-3-23.19Zm-6.66,0,3,23.19H45.89l-2-23.19ZM35.13,25.25H28.41V2.06h6.72Zm-8.78,0H19.72l2-23.19h4.62Zm-8.7,0H11L14,2.06h5.66ZM7.35,2.06h4.58l-3,23.19H2.31Z" fill="#d6d6d6"/><path d="M51.53,32.94H34a1,1,0,0,0-1,1V46.11H31.77a1,1,0,1,0,0,2.06h22a1,1,0,0,0,0-2.06H52.56V34A1,1,0,0,0,51.53,32.94ZM35,46.11V35H50.5V46.11Z" fill="#d6d6d6"/><path d="M21.89,42.82A3.23,3.23,0,1,0,25.11,46,3.23,3.23,0,0,0,21.89,42.82Zm0,4.39A1.17,1.17,0,1,1,23.05,46,1.17,1.17,0,0,1,21.89,47.21Z" fill="#d6d6d6"/><path d="M62.51,62.58H59.15v-22a1,1,0,0,0-2.06,0v22H28.41V34a1,1,0,0,0-1-1H9.81a1,1,0,0,0-1,1V62.58H6.45V58.12a1,1,0,0,0-2.06,0v4.46H1a1,1,0,1,0,0,2H62.51a1,1,0,1,0,0-2Zm-51.67,0V35H26.35V62.58Z" fill="#d6d6d6"/><path d="M46.41,40.92l-2.2,2.2a1,1,0,0,0,1.46,1.45l2.2-2.19a1,1,0,0,0-1.46-1.46Z" fill="#d6d6d6"/><path d="M46.77,36.53a1,1,0,0,0-1.46,0l-6.58,6.59a1,1,0,1,0,1.45,1.45L46.77,38A1,1,0,0,0,46.77,36.53Z" fill="#d6d6d6"/></g></g></svg>