<svg xmlns="http://www.w3.org/2000/svg" viewBox="0 0 57.01 65.87"><g id="Capa_2" data-name="Capa 2"><g id="Capa_1-2" data-name="Capa 1"><path d="M55.4,36.79H51.7a23.35,23.35,0,0,0-5.19-12.32A1,1,0,1,0,45,25.7a21.42,21.42,0,0,1,4.73,11.09H7.24A21.44,21.44,0,0,1,28.5,17.91a21.19,21.19,0,0,1,13.42,4.73,1,1,0,0,0,1.21-1.51,23.48,23.48,0,0,0-12.1-5v-1a3.44,3.44,0,0,0,2.1-3c0-2-2-3.56-4.63-3.56s-4.62,1.57-4.62,3.56a3.44,3.44,0,0,0,2.1,3v1A23.38,23.38,0,0,0,5.3,36.79H1.61A1.61,1.61,0,0,0,0,38.4v2.09a1.61,1.61,0,0,0,1.61,1.6H3a2.07,2.07,0,0,0,.15.25L5,45a3.72,3.72,0,0,0,2.82,1.47h4.6l2,3.89a8.73,8.73,0,0,0,3,3l7,3.89h-.19a1.62,1.62,0,0,0-1.61,1.61v5.39a1.62,1.62,0,0,0,1.61,1.61H42a1.61,1.61,0,0,0,1.61-1.61V58.87A1.61,1.61,0,0,0,42,57.26H40.92V56.9a10.3,10.3,0,0,1,.68-3.33l2.88-6.7a2.49,2.49,0,0,0,.14-.44h4.6A3.7,3.7,0,0,0,52,45l1.81-2.62a2,2,0,0,0,.14-.25H55.4A1.61,1.61,0,0,0,57,40.49V38.4a1.61,1.61,0,0,0-1.61-1.61ZM29.1,16H27.91v-.35a5.92,5.92,0,0,0,1.19,0ZM25.81,12.1c0-1,1.42-1.63,2.69-1.63s2.7.67,2.7,1.63-1.42,1.64-2.7,1.64-2.69-.67-2.69-1.64ZM41.66,59.19v4.75H38V59.19Zm-1.83-6.38A12.18,12.18,0,0,0,39,56.9v.36H34.68a1,1,0,1,0,0,1.93H36v4.75H24.46V59.19h5.72a1,1,0,0,0,0-1.93h-3a4.15,4.15,0,0,0-1.43-1.4l-7.45-4.17a6.79,6.79,0,0,1-2.2-2.26l-1.56-3h3.16l.51,1a6.22,6.22,0,0,0,3.29,2.79l5.37,1.69a15.9,15.9,0,0,0,4.06.62h2.28a5.07,5.07,0,0,0,3.82-2l2.59-3.71a2.19,2.19,0,0,1,.39-.42h2.53ZM19.88,46.43h17.7l-2.11,3a3.22,3.22,0,0,1-2.24,1.17H30.94a14.24,14.24,0,0,1-3.48-.53L22.1,48.4A4.38,4.38,0,0,1,20,46.58Zm30.57-2.57a1.8,1.8,0,0,1-1.23.64H7.79a1.8,1.8,0,0,1-1.23-.64L5.35,42.09H51.66Zm4.63-3.7H1.93V38.72H55.08Z" fill="#d6d6d6"/><path d="M12,15.31h3.52a1,1,0,1,0,0-1.93H12A2.2,2.2,0,0,1,12,9h2.35a1,1,0,0,0,0-1.93H12a4.13,4.13,0,0,0,0,8.25Z" fill="#d6d6d6"/><path d="M17.62,1.93h3.11a2.57,2.57,0,0,1,0,5.13H18.86a1,1,0,1,0,0,1.93h1.87a4.5,4.5,0,0,0,0-9H17.62a1,1,0,0,0-1,1,1,1,0,0,0,1,1Z" fill="#d6d6d6"/><path d="M36.48,15.37a1,1,0,0,0,1-1V12.5a1.44,1.44,0,0,1,1.43-1.44h5.67a3.83,3.83,0,1,0,0-7.65h-2a1,1,0,1,0,0,1.93h2a1.9,1.9,0,1,1,0,3.79H38.88a3.36,3.36,0,0,0-3.36,3.37v1.91a1,1,0,0,0,1,1Z" fill="#d6d6d6"/><path d="M27.86,60.27H26.19a1,1,0,1,0,0,1.93h1.67a1,1,0,1,0,0-1.93Z" fill="#d6d6d6"/></g></g></svg>