<svg xmlns="http://www.w3.org/2000/svg" viewBox="0 0 65.47 65.47"><g id="Capa_2" data-name="Capa 2"><g id="Capa_1-2" data-name="Capa 1"><path d="M45,63.55H11.76a5.44,5.44,0,0,1-5.43-5.43V45a1,1,0,0,0-1.92,0V58.12a7.36,7.36,0,0,0,7.35,7.35H45a1,1,0,1,0,0-1.92Z" fill="#d6d6d6"/><path d="M35.61,56.78V42.2a2.88,2.88,0,1,0-5.75,0V56.78a2.88,2.88,0,0,0,5.75,0Zm-3.83,0V42.2a1,1,0,1,1,1.91,0V56.78a1,1,0,1,1-1.91,0Z" fill="#d6d6d6"/><path d="M26.66,56.78V42.2a2.88,2.88,0,1,0-5.75,0V56.78a2.88,2.88,0,0,0,5.75,0Zm-3.83,0V42.2a1,1,0,1,1,1.91,0V56.78a1,1,0,1,1-1.91,0Z" fill="#d6d6d6"/><path d="M17.71,56.78V42.2a2.88,2.88,0,1,0-5.75,0V56.78a2.88,2.88,0,0,0,5.75,0Zm-3.84,0V42.2a1,1,0,1,1,1.92,0V56.78a1,1,0,1,1-1.92,0Z" fill="#d6d6d6"/><path d="M44.56,56.78V42.2a2.88,2.88,0,1,0-5.75,0V56.78a2.88,2.88,0,0,0,5.75,0Zm-3.83,0V42.2a1,1,0,0,1,1.92,0V56.78a1,1,0,0,1-1.92,0Z" fill="#d6d6d6"/><path d="M50.64,59.65a2.89,2.89,0,0,0,2.88-2.87V42.2a2.88,2.88,0,0,0-5.76,0V56.78a2.88,2.88,0,0,0,2.88,2.87Zm-1-17.45a1,1,0,0,1,1.92,0V56.78a1,1,0,0,1-1.92,0Z" fill="#d6d6d6"/><path d="M62.59,31.78h-3.7V24.57a1,1,0,0,0-1.92,0v7.21H55.05V28.65a3.2,3.2,0,1,0-6.39,0v3.13H46.74V18.67a1.6,1.6,0,0,1,1.6-1.6h7a1.6,1.6,0,0,1,1.6,1.6v1.79a1,1,0,0,0,1.92,0V18.67a3.53,3.53,0,0,0-3.52-3.52h-.64V11.76a1,1,0,0,0-1-.95H49.93a1,1,0,0,0-1,.95v3.39h-.64a3.44,3.44,0,0,0-1.6.39v-3a1,1,0,0,0-1-1h-5L38.22,2.13a2.87,2.87,0,0,0-5.48-.21,2.88,2.88,0,0,0-5.49.21l-2.53,9.44H18.29a1,1,0,0,0-1,1v7.74H7.54a1,1,0,0,0-1,1V31.78H2.88a2.88,2.88,0,1,0,0,5.75H4.41v3.39a1,1,0,0,0,1.92,0V37.53H59.14V58.12a5.44,5.44,0,0,1-5.43,5.43H49.1a1,1,0,1,0,0,1.92h4.61a7.36,7.36,0,0,0,7.35-7.35V37.53h1.53a2.88,2.88,0,1,0,0-5.75ZM50.89,12.72h1.92v2.43H50.89Zm-.32,15.93a1.29,1.29,0,0,1,1.28-1.28,1.31,1.31,0,0,1,.91.38,1.26,1.26,0,0,1,.37.9v3.13H50.57ZM44.82,13.49V26.74L41.27,13.49ZM35.2,2a1,1,0,0,1,1.17.68l7.81,29.15h-2L34.52,3.13A1,1,0,0,1,35.2,2ZM27.83,22.19h1.52v9.59H25.26Zm2.48-1.92h-2l1.82-6.78h5.15l4.9,18.29H31.27V21.23a1,1,0,0,0-1-1ZM32.74,3.88l2.06,7.69H30.67ZM29.1,2.63a1,1,0,1,1,1.85.5L23.28,31.78h-2ZM19.25,13.49H24.2l-1.81,6.78H19.25ZM8.5,22.19H21.87L19.3,31.78H8.5ZM62.59,35.61H2.88a1,1,0,1,1,0-1.92H62.59a1,1,0,1,1,0,1.92Z" fill="#d6d6d6"/></g></g></svg>