<svg xmlns="http://www.w3.org/2000/svg" viewBox="0 0 103.22 100.46">
    <g id="Capa_2" data-name="Capa 2">
        <g id="Capa_1-2" data-name="Capa 1">
            <path d="M32.93,78.91A10.78,10.78,0,1,0,43.7,89.68h0A10.77,10.77,0,0,0,32.93,78.91Zm0,16.76a6,6,0,1,1,6-6A6,6,0,0,1,32.93,95.67Z" fill="#d6d6d6" />
            <path d="M78.43,78.91A10.78,10.78,0,1,0,89.2,89.68h0A10.77,10.77,0,0,0,78.43,78.91Zm0,16.76a6,6,0,1,1,6-6A6,6,0,0,1,78.43,95.67Z" fill="#d6d6d6" />
            <path d="M100.82,15.09,22.87,14,20.71,7.42A11,11,0,0,0,10.42,0h-8a2.4,2.4,0,0,0,0,4.79h8A6.22,6.22,0,0,1,16.16,9L31.37,54.84l-1.2,2.75A11.52,11.52,0,0,0,31.25,68a11.15,11.15,0,0,0,9,5H86.81a2.4,2.4,0,0,0,0-4.79H40.23a6.12,6.12,0,0,1-5-2.87,6.63,6.63,0,0,1-.6-5.75l1-2.16L86,52.2A13.15,13.15,0,0,0,97.34,42.15l5.75-24.07a2,2,0,0,0-.36-2A3,3,0,0,0,100.82,15.09Zm-8.15,26a8.12,8.12,0,0,1-7.3,6.34L35.56,52.56,24.43,18.8l73.39,1.08Z" fill="#d6d6d6" />
        </g>
    </g>
</svg>