<svg xmlns="http://www.w3.org/2000/svg" viewBox="0 0 86.5 87.2"><g id="Capa_2" data-name="Capa 2"><g id="Capa_1-2" data-name="Capa 1"><path d="M76.55,28.86l9.57-9.65a1.27,1.27,0,0,0,.36-1.09,1.28,1.28,0,0,0-.65-.93L54.4.16a1.27,1.27,0,0,0-1.51.22L43.25,10,33.6.38A1.23,1.23,0,0,0,32.7,0a1.21,1.21,0,0,0-.61.16L22,5.63a1.28,1.28,0,0,0-.62.75,1.33,1.33,0,0,0,.1,1A1.3,1.3,0,0,0,22.61,8a1.32,1.32,0,0,0,.61-.16l9.25-5,8.66,8.66L12,27.28,3.38,18.62l15.34-8.31a1.33,1.33,0,0,0,.62-.76,1.27,1.27,0,0,0-1.22-1.64,1.25,1.25,0,0,0-.61.15L.67,17.19a1.3,1.3,0,0,0-.66.93,1.33,1.33,0,0,0,.36,1.09l9.57,9.65L.37,38.51a1.27,1.27,0,0,0,.3,2l9.79,5.31v23s0,.09,0,.13a.43.43,0,0,0,0,0,.15.15,0,0,0,0,.07.19.19,0,0,0,0,.08v0l0,.08a.08.08,0,0,0,0,0l0,.07a.08.08,0,0,1,0,0,.21.21,0,0,0,0,.06l0,0,0,0,0,.06,0,0,.05.06,0,0s0,0,.06.05l.06,0,0,0,.12.07L42.63,87l.14.07h0l.11,0h0l.11,0h.37l.11,0h0l.11,0h0l.14-.07,31.5-17,.11-.07,0,0,.06,0,.06-.05,0,0,.06-.06s0,0,0,0l.05-.06,0,0,0,0,0-.06a.08.08,0,0,0,0,0l0-.07s0,0,0,0l0-.08a.06.06,0,0,1,0,0,.31.31,0,0,1,0-.08.2.2,0,0,1,0-.07v0a.57.57,0,0,0,0-.13v-23l9.8-5.31a1.29,1.29,0,0,0,.3-2ZM54,2.86,83.11,18.62l-8.59,8.66L45.36,11.52ZM12.34,44l-9-4.86L12,30.43,41.13,46.2l-8.66,8.66L12.36,44ZM42,83.78,13,68.13V47.22L32.09,57.56a1.31,1.31,0,0,0,.61.15,1.28,1.28,0,0,0,.9-.37L42,49Zm1.28-39.35L14.43,28.86,43.25,13.28,72.07,28.86ZM74.16,44h0l-6.37,3.45a1.28,1.28,0,0,0-.51,1.73,1.27,1.27,0,0,0,1.12.67,1.21,1.21,0,0,0,.61-.16l4.49-2.43V68.13l-29,15.65V49l8.37,8.37a1.3,1.3,0,0,0,.91.37,1.24,1.24,0,0,0,.6-.15l10.1-5.47a1.28,1.28,0,0,0-.61-2.4,1.28,1.28,0,0,0-.61.15l-9.25,5L45.36,46.2,74.52,30.43l8.59,8.66Z" fill="#333"/></g></g></svg>