<svg xmlns="http://www.w3.org/2000/svg" viewBox="0 0 49.63 46.09"><g id="Capa_2" data-name="Capa 2"><g id="Capa_1-2" data-name="Capa 1"><path d="M46.18,0H28.33a.73.73,0,0,0-.72.73.72.72,0,0,0,.72.72H46.18a2,2,0,0,1,2,2V22.16a2,2,0,0,1-2,2H43.33a.75.75,0,0,0-.43.13L38,27.88v-3a.73.73,0,0,0-.73-.72H21.44a2,2,0,0,1-2-2V3.45a2,2,0,0,1,2-2h3.73a.72.72,0,0,0,.72-.72A.73.73,0,0,0,25.17,0H21.44A3.45,3.45,0,0,0,18,3.45V22.16a3.45,3.45,0,0,0,3.44,3.45H36.49v3.7a.73.73,0,0,0,1.16.59l5.91-4.29h2.62a3.46,3.46,0,0,0,3.45-3.45V3.45A3.46,3.46,0,0,0,46.18,0Z" fill="#d6d6d6"/><path d="M42.22,38.42a3.41,3.41,0,0,0-1.75-2.53l-3.24-1.76a.72.72,0,0,0-1,.29.74.74,0,0,0,.29,1l3.23,1.76a2,2,0,0,1,1,1.45h0a2,2,0,0,1-.59,1.69l-.47.45L27.78,34.06l1.41-1.24a1.91,1.91,0,0,1,2.16-.24l2,1.1a.73.73,0,0,0,.7-1.28l-2-1.09a3.34,3.34,0,0,0-3.82.42L25,34.61a1.93,1.93,0,0,1-2.38.13,35.13,35.13,0,0,1-10.93-11.6,1.92,1.92,0,0,1,.29-2.26l2.58-2.73a3.38,3.38,0,0,0,.57-3.81L10.73,5.63a3.42,3.42,0,0,0-5.38-1L3.7,6.18A11.44,11.44,0,0,0,1.17,19.63l0,0c.69,1.4,1.44,2.78,2.23,4.08l.42.69a.73.73,0,0,0,1.23-.77L4.66,23c-.76-1.27-1.49-2.61-2.17-4v0A10,10,0,0,1,4.54,7.38L11.1,19.65l-.22.24a3.36,3.36,0,0,0-.5,4A36.56,36.56,0,0,0,21.75,35.93a3.34,3.34,0,0,0,1.93.61,3.39,3.39,0,0,0,2.24-.84l.71-.62,12,6.74v0a10,10,0,0,1-11.53,1.68A55.89,55.89,0,0,1,7.18,26.78a.74.74,0,0,0-1-.16.72.72,0,0,0-.16,1A57.25,57.25,0,0,0,26.42,44.81a11.43,11.43,0,0,0,13.2-1.93l1.58-1.52a3.38,3.38,0,0,0,1-2.9v0ZM5.65,6.36l.69-.64A1.94,1.94,0,0,1,8,5.23a2,2,0,0,1,1.4,1L13.79,15a1.94,1.94,0,0,1-.32,2.16l-1.32,1.39Z" fill="#d6d6d6"/><path d="M43.77,13.49A2.54,2.54,0,1,0,41.23,16a2.54,2.54,0,0,0,2.54-2.54Zm-3.63,0a1.09,1.09,0,1,1,1.09,1.09,1.09,1.09,0,0,1-1.09-1.09Z" fill="#d6d6d6"/><path d="M36.35,13.49A2.54,2.54,0,1,0,33.81,16a2.54,2.54,0,0,0,2.54-2.54Zm-3.62,0a1.09,1.09,0,1,1,1.08,1.09,1.08,1.08,0,0,1-1.08-1.09Z" fill="#d6d6d6"/><path d="M23.86,13.49A2.54,2.54,0,1,0,26.4,11a2.54,2.54,0,0,0-2.54,2.54Zm2.54-1.08a1.09,1.09,0,1,1-1.09,1.08,1.09,1.09,0,0,1,1.09-1.08Z" fill="#d6d6d6"/></g></g></svg>