<svg xmlns="http://www.w3.org/2000/svg" viewBox="0 0 83.3 60.26"><g id="Capa_2" data-name="Capa 2"><g id="Capa_1-2" data-name="Capa 1"><path d="M23.77,34.77A17.88,17.88,0,1,0,41.65,16.88,17.9,17.9,0,0,0,23.77,34.77ZM41.65,19.32A15.45,15.45,0,1,1,26.21,34.77,15.46,15.46,0,0,1,41.65,19.32Z" fill="#ffdebd"/><path d="M78.38,11.34l-1.15-.27V6a1.22,1.22,0,0,0-1-1.2l-8.5-1.63a1.23,1.23,0,0,0-1,.26,1.21,1.21,0,0,0-.44.94V8.92q-3.87-.62-7.74-1L57.53,3a3.79,3.79,0,0,0-3.69-3H29.46a3.8,3.8,0,0,0-3.7,3l-1,4.88q-3.87.42-7.73,1V4.34a1.21,1.21,0,0,0-.44-.94,1.23,1.23,0,0,0-1-.26L7.06,4.77a1.21,1.21,0,0,0-1,1.2v5.1c-.39.08-.77.18-1.16.27A6.4,6.4,0,0,0,0,17.58V53.84a6.43,6.43,0,0,0,6.42,6.42H67.54a1.22,1.22,0,0,0,0-2.44H6.42a4,4,0,0,1-4-4V49.49H15.37a1.22,1.22,0,0,0,1.22-1.22V44.11a1.22,1.22,0,0,0-2.44,0v2.94H2.44V22.49H14.15V38.4a1.22,1.22,0,0,0,2.44,0V21.27a1.22,1.22,0,0,0-1.22-1.22H2.44V17.58a4,4,0,0,1,3-3.87,155,155,0,0,1,20.4-3.49,1.23,1.23,0,0,0,1.07-1l1.2-5.75a1.35,1.35,0,0,1,1.31-1.06H53.84a1.35,1.35,0,0,1,1.3,1.06l1.21,5.75a1.22,1.22,0,0,0,1.06,1,154.71,154.71,0,0,1,20.4,3.49,4,4,0,0,1,3,3.87V53.84a4,4,0,0,1-4,4H73.24a1.22,1.22,0,0,0,0,2.44h3.64a6.43,6.43,0,0,0,6.42-6.42V17.58a6.4,6.4,0,0,0-4.92-6.24ZM8.51,7l6.06-1.16V9.33q-3,.53-6.06,1.19ZM68.73,5.81,74.79,7v3.55c-2-.44-4-.83-6.06-1.19Z" fill="#ffdebd"/><path d="M50.63,8.17a1.22,1.22,0,0,0,0-2.44h-18a1.22,1.22,0,0,0,0,2.44Z" fill="#ffdebd"/><path d="M41.65,44.13a9.34,9.34,0,0,0,7-3.18,1.21,1.21,0,0,0-.11-1.72,1.23,1.23,0,0,0-1.72.11,6.93,6.93,0,1,1,1.72-4.57,1.22,1.22,0,0,0,2.44,0,9.37,9.37,0,1,0-9.36,9.36Z" fill="#ffdebd"/><path d="M66.68,30.05h7.56a1.22,1.22,0,0,0,1.22-1.22V21.27a1.22,1.22,0,0,0-1.22-1.22H66.68a1.21,1.21,0,0,0-1.22,1.22v7.56a1.22,1.22,0,0,0,1.22,1.22Zm1.22-7.56H73v5.12H67.9Z" fill="#ffdebd"/><path d="M66.68,36.47h7.56a1.22,1.22,0,0,0,0-2.44H66.68a1.22,1.22,0,1,0,0,2.44Z" fill="#ffdebd"/><path d="M66.68,43h7.56a1.22,1.22,0,1,0,0-2.44H66.68a1.22,1.22,0,0,0,0,2.44Z" fill="#ffdebd"/><path d="M66.68,49.49h7.56a1.22,1.22,0,0,0,0-2.44H66.68a1.22,1.22,0,1,0,0,2.44Z" fill="#ffdebd"/></g></g></svg>