<svg xmlns="http://www.w3.org/2000/svg" viewBox="0 0 66.66 53.25"><g id="Capa_2" data-name="Capa 2"><g id="Capa_1-2" data-name="Capa 1"><path d="M31,52.34C3.77,28.17,5.63,29.82,5.25,29.46h0c-8.63-8.29-6-21.85,3.32-27.21a1,1,0,1,1,1,1.69A15.23,15.23,0,0,0,7.07,28.49l25.18,22.4a1.63,1.63,0,0,0,2.16,0l8.06-7.18a1,1,0,0,1,1.3,1.46l-8.06,7.17a3.57,3.57,0,0,1-4.76,0ZM45.8,42.06a1,1,0,0,1,.08-1.38l13.7-12.19a14.88,14.88,0,0,0,5-9.4,15.21,15.21,0,0,0-30-5.08A1.33,1.33,0,0,1,32,14,15.27,15.27,0,0,0,13.51,2.38a1,1,0,0,1-1.18-.73A1,1,0,0,1,13.06.48a17.2,17.2,0,0,1,20.27,11A17.17,17.17,0,0,1,62,5.36a17.62,17.62,0,0,1,4.56,14A16.83,16.83,0,0,1,60.88,30L47.18,42.14a1,1,0,0,1-1.38-.08Z" fill="#d6d6d6"/></g></g></svg>