<svg xmlns="http://www.w3.org/2000/svg" viewBox="0 0 41.74 54.09"><g id="Capa_2" data-name="Capa 2"><g id="Capa_1-2" data-name="Capa 1"><path d="M20.87,54.09a.78.78,0,0,1-.48-.17A69.6,69.6,0,0,1,4.72,36.19a.79.79,0,1,1,1.36-.8c5,8.58,12.79,15.25,14.79,16.89a73.69,73.69,0,0,0,9.45-9.4A51.2,51.2,0,0,0,37.11,32.7a27,27,0,0,0,3-11.83,19,19,0,0,0-1.91-8.37.79.79,0,1,1,1.43-.69,20.69,20.69,0,0,1,2.06,9.06,28.59,28.59,0,0,1-3.21,12.54,53.57,53.57,0,0,1-7,10.52,73.57,73.57,0,0,1-10.16,10A.83.83,0,0,1,20.87,54.09Zm-17-20.31a.79.79,0,0,1-.71-.44A28.56,28.56,0,0,1,0,20.87,20.88,20.88,0,0,1,38,9a.79.79,0,0,1-1.31.9,19.29,19.29,0,0,0-35.13,11,26.88,26.88,0,0,0,3,11.77.79.79,0,0,1-.37,1.06A.72.72,0,0,1,3.89,33.78Zm17-4.11a8.8,8.8,0,0,1-7.5-13.4.79.79,0,1,1,1.35.83,7.21,7.21,0,1,0,2-2.1.8.8,0,0,1-.93-1.29,8.8,8.8,0,1,1,5.12,16Z" fill="#d6d6d6"/></g></g></svg>