<svg xmlns="http://www.w3.org/2000/svg" viewBox="0 0 53.74 86.97"><g id="Capa_2" data-name="Capa 2"><g id="Capa_1-2" data-name="Capa 1"><path d="M26.87,79.35a1.27,1.27,0,0,1-1-.48C24.83,77.49,0,44.83,0,26.87a26.87,26.87,0,0,1,53.74,0c0,18-24.82,50.62-25.88,52a1.27,1.27,0,0,1-1,.48Zm0-76.86A24.41,24.41,0,0,0,2.49,26.87C2.49,42,22.19,69.67,26.87,76c4.68-6.36,24.38-34,24.38-49.16A24.41,24.41,0,0,0,26.87,2.49Z" fill="#8c8c8c"/><path d="M26.87,45.62A18.54,18.54,0,1,1,45.41,27.08,18.54,18.54,0,0,1,26.87,45.62Zm0-34.59a16.05,16.05,0,1,0,16.05,16,16.05,16.05,0,0,0-16-16Z" fill="#8c8c8c"/><path d="M30,87a1.25,1.25,0,0,1-.05-2.49c1.23,0,2.44-.14,3.58-.26a1.25,1.25,0,0,1,.26,2.48c-1.19.12-2.45.21-3.74.26Z" fill="#8c8c8c"/><path d="M8.91,84.29a1.29,1.29,0,0,1-.43-.07C3,82.19,0,79.34,0,76.19c0-4.94,7.43-9,18.94-10.38a1.24,1.24,0,1,1,.29,2.47c-11,1.31-16.74,5-16.74,7.91,0,2,2.56,4.1,6.86,5.69a1.24,1.24,0,0,1-.44,2.41Z" fill="#8c8c8c"/><path d="M21.27,86.81h-.09c-1.29-.11-2.54-.25-3.74-.43A1.24,1.24,0,0,1,16.35,85a1.27,1.27,0,0,1,1.45-1c1.14.17,2.35.31,3.57.41a1.24,1.24,0,1,1-.1,2.48Z" fill="#8c8c8c"/><path d="M42.34,85.1A1.24,1.24,0,0,1,42,82.66c5.71-1.63,9.26-4.11,9.26-6.47,0-2.94-5.76-6.6-16.75-7.91a1.24,1.24,0,1,1,.29-2.47c11.51,1.37,18.94,5.44,18.94,10.38,0,3.67-3.93,6.82-11.06,8.86a1,1,0,0,1-.34,0Z" fill="#8c8c8c"/></g></g></svg>