<svg xmlns="http://www.w3.org/2000/svg" viewBox="0 0 56.9 85.43"><g id="Capa_2" data-name="Capa 2"><g id="Capa_1-2" data-name="Capa 1"><path d="M28.45,0A28.48,28.48,0,0,0,0,28.45,1.45,1.45,0,0,0,.47,29.6L24.73,51.3h-13A5.69,5.69,0,0,0,6.05,57V79.74a5.69,5.69,0,0,0,5.69,5.69H45.16a5.69,5.69,0,0,0,5.69-5.69V57a5.69,5.69,0,0,0-5.69-5.69H38.05a1.42,1.42,0,1,0,0,2.84h7.11A2.86,2.86,0,0,1,48,57V79.74a2.86,2.86,0,0,1-2.85,2.85H11.74a2.86,2.86,0,0,1-2.85-2.85V57a2.86,2.86,0,0,1,2.85-2.85h7.59v9.25a1.43,1.43,0,0,0,1.43,1.42H36.27a1.42,1.42,0,0,0,1.42-1.42v-5a1.42,1.42,0,1,0-2.84,0V62H22.18V54.14c6.69,0,6.29,0,6.4,0,.65-.05-.69,1,20.86-18.29a1.42,1.42,0,0,0-1.89-2.12L29.87,49.54V34.23a1.42,1.42,0,1,0-2.84,0V49.54l-22-19.67H55.47a1.43,1.43,0,0,0,1.43-1.42A28.48,28.48,0,0,0,28.45,0ZM2.88,27A25.6,25.6,0,0,1,54,27Z" fill="#8c8c8c"/></g></g></svg>