<svg xmlns="http://www.w3.org/2000/svg" viewBox="0 0 122.41 137.48"><g id="Capa_2" data-name="Capa 2"><g id="Capa_1-2" data-name="Capa 1"><path d="M77.1,46A8.95,8.95,0,1,0,68.15,55,9,9,0,0,0,77.1,46ZM63.23,46A4.92,4.92,0,1,1,68.15,51,4.92,4.92,0,0,1,63.23,46Z" fill="#afafaf"/><path d="M27.73,33.93H56.52a2,2,0,0,0,0-4H27.73a5.38,5.38,0,0,0-5.38,5.38V85.83a5.38,5.38,0,0,0,5.38,5.38h67a5.39,5.39,0,0,0,5.38-5.38V35.29a5.39,5.39,0,0,0-5.38-5.38H65.91a2,2,0,1,0,0,4H94.7a1.37,1.37,0,0,1,1.35,1.36v38.1L87.36,60.13a7.77,7.77,0,0,0-13,0L67.58,70.47l-13-19.83a7.77,7.77,0,0,0-13,0L26.38,73.86V35.29a1.37,1.37,0,0,1,1.35-1.36Zm50,28.4a3.74,3.74,0,0,1,6.26,0L96.05,80.74v5.09a1.37,1.37,0,0,1-1.35,1.35H61.44c3.35-5.1,13-19.8,16.29-24.85ZM45,52.85a3.73,3.73,0,0,1,6.26,0l14,21.29-8.54,13H27.73a1.37,1.37,0,0,1-1.35-1.35V81.21Z" fill="#afafaf"/><path d="M48.76,121.07a.83.83,0,0,1,.65,1L47.1,133.29A3.48,3.48,0,0,0,52.26,137l39.56-22.84a61.25,61.25,0,0,0,29.26-40.3,2,2,0,0,0-3.94-.84,57.24,57.24,0,0,1-27.33,37.66L51.29,132.91l2.06-10.06a4.85,4.85,0,0,0-3.76-5.72A57.14,57.14,0,1,1,118.32,64a2,2,0,1,0,4,.19,61.2,61.2,0,1,0-73.58,56.93Z" fill="#afafaf"/></g></g></svg>