<svg xmlns="http://www.w3.org/2000/svg" viewBox="0 0 55.13 55.14"><g id="Capa_2" data-name="Capa 2"><g id="Capa_1-2" data-name="Capa 1"><path d="M47.05,8.07A27.38,27.38,0,0,0,27.56,0a.81.81,0,0,0,0,1.62,26,26,0,0,1,18.35,44.3A26,26,0,1,1,24.11,1.84a.8.8,0,0,0,.69-.9.8.8,0,0,0-.9-.7A27.58,27.58,0,1,0,47.05,8.07Z" fill="#d6d6d6"/><path d="M30.48,25.27a.81.81,0,0,0,.81-.81v-9a2,2,0,0,0-2-2h-3.4a2,2,0,0,0-2,2V30.84a2,2,0,0,0,2,2h3.4a2,2,0,0,0,2-2v-3a.81.81,0,0,0-1.62,0v3a.41.41,0,0,1-.41.41h-3.4a.41.41,0,0,1-.41-.41V15.46a.41.41,0,0,1,.41-.41h3.4a.41.41,0,0,1,.41.41v9a.81.81,0,0,0,.81.81Z" fill="#d6d6d6"/><path d="M27.56,35.12a3.73,3.73,0,1,0,3.73,3.72,3.73,3.73,0,0,0-3.73-3.72Zm0,5.84a2.12,2.12,0,1,1,2.11-2.11A2.12,2.12,0,0,1,27.56,41Z" fill="#d6d6d6"/></g></g></svg>