<svg xmlns="http://www.w3.org/2000/svg" viewBox="0 0 56.03 56.03"><g id="Capa_2" data-name="Capa 2"><g id="Capa_1-2" data-name="Capa 1"><path d="M30.79,56H25.22a3.91,3.91,0,0,1-3.89-3.62l-.17-2.35a23.71,23.71,0,0,1-3.91-1.62L15.47,50a3.89,3.89,0,0,1-5.3-.19.85.85,0,0,1,0-1.23.87.87,0,0,1,1.23,0,2.16,2.16,0,0,0,2.93.1l2.24-1.93a.84.84,0,0,1,1-.1,21.32,21.32,0,0,0,4.66,1.93.87.87,0,0,1,.63.78l.22,3a2.16,2.16,0,0,0,2.14,2h5.57a2.16,2.16,0,0,0,2.14-2l.21-3a.89.89,0,0,1,.64-.77,21.5,21.5,0,0,0,4.68-1.94.88.88,0,0,1,1,.1l2.24,1.93a2.15,2.15,0,0,0,2.92-.1l3.94-3.94a2.17,2.17,0,0,0,.11-2.93l-1.94-2.24a.86.86,0,0,1-.11-1,21.35,21.35,0,0,0,1.94-4.66.85.85,0,0,1,.77-.63l3-.22a2.16,2.16,0,0,0,2-2.14V25.22a2.16,2.16,0,0,0-2-2.14l-3-.21a.89.89,0,0,1-.78-.64,20.84,20.84,0,0,0-1.93-4.66.88.88,0,0,1,.1-1l1.93-2.24a2.16,2.16,0,0,0-.1-2.93L44.61,7.47a2.16,2.16,0,0,0-2.93-.11L39.44,9.3a.87.87,0,0,1-1,.1,21.82,21.82,0,0,0-4.66-1.93.87.87,0,0,1-.63-.78l-.22-2.95a2.16,2.16,0,0,0-2.14-2H25.22a2.16,2.16,0,0,0-2.14,2l-.21,3a.89.89,0,0,1-.64.78A21.13,21.13,0,0,0,17.59,9.4a.89.89,0,0,1-1-.1L14.35,7.36a2.16,2.16,0,0,0-2.93.11L7.48,11.4a2.16,2.16,0,0,0-.1,2.93l1.93,2.24a.88.88,0,0,1,.1,1,20.84,20.84,0,0,0-1.93,4.66.87.87,0,0,1-.78.63l-2.95.22a2.16,2.16,0,0,0-2,2.14v5.57a2.16,2.16,0,0,0,2,2.14l3,.21a.89.89,0,0,1,.78.64A21.82,21.82,0,0,0,9.4,38.44a.88.88,0,0,1-.1,1L7.36,41.68a2.16,2.16,0,0,0,.11,2.93l1.9,1.9a.88.88,0,0,1-1.24,1.24l-1.9-1.9A3.91,3.91,0,0,1,6,40.54l1.54-1.78A23.71,23.71,0,0,1,6,34.85l-2.34-.17A3.92,3.92,0,0,1,0,30.79V25.22a3.91,3.91,0,0,1,3.62-3.89L6,21.16a23.71,23.71,0,0,1,1.62-3.91L6.05,15.47a3.91,3.91,0,0,1,.19-5.3l3.94-3.94A3.91,3.91,0,0,1,15.49,6l1.78,1.54A23.11,23.11,0,0,1,21.16,6l.17-2.35A3.91,3.91,0,0,1,25.22,0h5.57a3.92,3.92,0,0,1,3.89,3.62L34.85,6a23.36,23.36,0,0,1,3.91,1.62L40.54,6a3.91,3.91,0,0,1,5.31.19l3.93,3.94a3.9,3.9,0,0,1,.2,5.3l-1.54,1.79a23.26,23.26,0,0,1,1.62,3.9l2.35.17A3.91,3.91,0,0,1,56,25.22v5.57a3.92,3.92,0,0,1-3.62,3.89l-2.35.17a22.55,22.55,0,0,1-1.62,3.91L50,40.54a3.91,3.91,0,0,1-.19,5.31l-3.94,3.93a3.92,3.92,0,0,1-5.31.2l-1.78-1.54a23.16,23.16,0,0,1-3.92,1.63l-.17,2.34A3.92,3.92,0,0,1,30.79,56ZM28,39.26a11.25,11.25,0,1,1,3.32-22,.87.87,0,0,1-.51,1.67,9.52,9.52,0,1,0,2.93,1.51.89.89,0,0,1-.17-1.23.88.88,0,0,1,1.23-.16A11.25,11.25,0,0,1,28,39.26Z" fill="#d6d6d6"/></g></g></svg>