<svg xmlns="http://www.w3.org/2000/svg" viewBox="0 0 57.86 73"><g id="Capa_2" data-name="Capa 2"><g id="Capa_1-2" data-name="Capa 1"><path d="M28.93,63.59a3.35,3.35,0,1,0,3.34,3.35,3.35,3.35,0,0,0-3.34-3.35Zm0,4.55a1.21,1.21,0,1,1,1.21-1.2,1.2,1.2,0,0,1-1.21,1.2Z" fill="#d6d6d6"/><path d="M25.67,7.13h6.52a1.07,1.07,0,1,0,0-2.14H25.67a1.07,1.07,0,0,0,0,2.14Z" fill="#d6d6d6"/><path d="M50.8,39.46a1.06,1.06,0,0,0-1.06,1.07V60.87H8.13V40.53a1.07,1.07,0,0,0-2.14,0V67.07A5.94,5.94,0,0,0,11.92,73h34a5.94,5.94,0,0,0,5.93-5.93V40.53a1.06,1.06,0,0,0-1.07-1.07Zm-4.86,31.4h-34a3.79,3.79,0,0,1-3.79-3.79V63H49.74v4.06a3.8,3.8,0,0,1-3.8,3.79Z" fill="#d6d6d6"/><path d="M57.86,19.3v0h0v0h0a1,1,0,0,0-.21-.57l-5.78-7.95V5.93A5.94,5.94,0,0,0,45.94,0h-34A5.94,5.94,0,0,0,6,5.93v4.78l-5.79,8h0a1.18,1.18,0,0,0-.2.55H0v0H0V23.8a6.65,6.65,0,0,0,6,6.61v5.84a1.07,1.07,0,0,0,2.14,0v-6a6.65,6.65,0,0,0,4.08-2.86,6.64,6.64,0,0,0,11.15,0,6.63,6.63,0,0,0,11.14,0,6.64,6.64,0,0,0,11.15,0,6.64,6.64,0,0,0,4.09,2.86v6a1.07,1.07,0,1,0,2.13,0V30.41a6.65,6.65,0,0,0,6-6.61V19.31ZM46.35,18.24l-.78-1.78a1.07,1.07,0,0,0-1.4-.56,1.08,1.08,0,0,0-.56,1.41l.41.93H35.43l-.89-6.11h6.81l.56,1.26a1.06,1.06,0,0,0,1.4.55,1.07,1.07,0,0,0,.56-1.4l-.18-.41h6.57l4.43,6.11ZM25.48,12.13h6.9l.89,6.11H24.59Zm-13.56-10h34a3.8,3.8,0,0,1,3.8,3.79V10H8.13V5.93a3.79,3.79,0,0,1,3.79-3.79Zm-4.32,10h6.57l-.18.41A1.08,1.08,0,0,0,14.55,14,1.06,1.06,0,0,0,16,13.4l.56-1.27h6.81l-.89,6.11H13.85l.36-.84a1.07,1.07,0,1,0-2-.86l-.74,1.7H3.17Zm-1,16.17a4.51,4.51,0,0,1-4.5-4.5V20.37h9V23.8a4.51,4.51,0,0,1-4.5,4.5Zm11.15,0a4.51,4.51,0,0,1-4.51-4.5V20.37h9V23.8a4.51,4.51,0,0,1-4.5,4.5Zm11.14,0a4.51,4.51,0,0,1-4.5-4.5V20.37h9V23.8a4.51,4.51,0,0,1-4.5,4.5Zm11.15,0a4.51,4.51,0,0,1-4.51-4.5V20.37h9V23.8a4.51,4.51,0,0,1-4.5,4.5Zm15.64-4.5a4.5,4.5,0,0,1-9,0V20.37h9Z" fill="#d6d6d6"/><path d="M32.13,48.77a2.38,2.38,0,0,0,2.22-1.53L36,42.79a1.58,1.58,0,0,0-.18-1.46,1.6,1.6,0,0,0-1.31-.69h-6.4a1.07,1.07,0,0,0,0,2.14h5.61l-1.4,3.7a.25.25,0,0,1-.22.15H27a.23.23,0,0,1-.23-.19l-1.08-5.16a1.9,1.9,0,0,0-1.86-1.51H22.8a1.07,1.07,0,1,0,0,2.14h.88l1,5A2.37,2.37,0,0,0,27,48.77Z" fill="#d6d6d6"/><path d="M27.19,49.06H27a1.07,1.07,0,0,0,0,2.14h.23a1.07,1.07,0,0,0,0-2.14Z" fill="#d6d6d6"/><path d="M30.9,49.06h-.23a1.07,1.07,0,0,0,0,2.14h.23a1.07,1.07,0,0,0,0-2.14Z" fill="#d6d6d6"/><path d="M42.4,44.68A13.47,13.47,0,1,0,28.93,58.16,13.48,13.48,0,0,0,42.4,44.68Zm-24.8,0A11.34,11.34,0,1,1,28.93,56,11.34,11.34,0,0,1,17.6,44.68Z" fill="#d6d6d6"/></g></g></svg>