<svg xmlns="http://www.w3.org/2000/svg" viewBox="0 0 51.11 55.24"><g id="Capa_2" data-name="Capa 2"><g id="Capa_1-2" data-name="Capa 1"><path d="M51.11,17.25a.87.87,0,0,0-.16-.43l-6-8v-8A.81.81,0,0,0,44.12,0H35.83a.81.81,0,0,0,0,1.62h7.48V8.25H7.81V1.62H32.3A.81.81,0,1,0,32.3,0H7a.81.81,0,0,0-.81.81v8l-6,8a.87.87,0,0,0-.16.49V20.4a4,4,0,0,0,6.19,3.16V49.5H2.87a.81.81,0,0,0-.81.81v4.12a.81.81,0,0,0,.81.81H48.24a.81.81,0,0,0,.81-.81V50.31a.81.81,0,0,0-.81-.81H44.93V39.69a.81.81,0,0,0-1.62,0V49.5h-19V27.81a.8.8,0,0,0-.8-.81H17.2a.81.81,0,0,0,0,1.62h5.49V49.5H11.93V28.62h1.74a.81.81,0,1,0,0-1.62H11.12a.81.81,0,0,0-.81.81V49.5H7.81V23.56a4,4,0,0,0,5.37-.78,3.94,3.94,0,0,0,6.19,0,3.94,3.94,0,0,0,6.19,0,3.93,3.93,0,0,0,6.18,0,3.94,3.94,0,0,0,6.19,0,4,4,0,0,0,5.38.78V36.17a.81.81,0,0,0,1.62,0V23.56a4,4,0,0,0,6.18-3.16V17.25ZM47.43,53.62H3.68V51.11H47.43Zm-15-37.12L31.17,9.87h3.11l2.48,6.63Zm-18.07,0,2.49-6.63h3.1L18.7,16.5Zm6,0,1.24-6.63h3.16V16.5Zm6,0V9.87h3.16l1.24,6.63ZM15.11,9.87,12.62,16.5H8.38l3.73-6.63ZM38.49,16.5,36,9.87h3l3.73,6.63Zm6.1,0L40.86,9.87h2.85l5,6.63ZM7.4,9.87h2.85L6.52,16.5H2.43ZM3.9,22.69A2.29,2.29,0,0,1,1.62,20.4V18.12H6.19v2.29A2.29,2.29,0,0,1,3.9,22.69Zm8.47-2.29a2.28,2.28,0,1,1-4.56,0V18.12h4.56Zm6.19,0a2.29,2.29,0,1,1-4.57,0V18.12h4.57Zm6.19,0a2.29,2.29,0,1,1-4.57,0V18.12h4.57Zm3.9,2.29a2.29,2.29,0,0,1-2.28-2.29V18.12h4.57V20.4a2.3,2.3,0,0,1-2.29,2.29Zm8.47-2.29a2.29,2.29,0,1,1-4.57,0h0V18.12h4.57Zm6.19,0a2.29,2.29,0,1,1-4.57,0V18.12h4.57Zm6.19,0a2.29,2.29,0,1,1-4.57,0V18.12H49.5Z" fill="#d6d6d6"/><path d="M27.62,27a.81.81,0,0,0-.81.81V42.06a.81.81,0,0,0,.81.81H40a.81.81,0,0,0,.81-.81V27.81A.81.81,0,0,0,40,27Zm.81,1.62H39.18v8.65H28.43ZM39.18,41.25H28.43V38.88H39.18Z" fill="#d6d6d6"/><path d="M14.44,40v4.13a.81.81,0,1,0,1.61,0V40a.81.81,0,1,0-1.61,0Z" fill="#d6d6d6"/></g></g></svg>