<svg xmlns="http://www.w3.org/2000/svg" viewBox="0 0 72.13 72.12"><g id="Capa_2" data-name="Capa 2"><g id="Capa_1-2" data-name="Capa 1"><path d="M68.51,40.72V66.11a6,6,0,0,1-6,6H9.62a6,6,0,0,1-6-6V40.72a1.2,1.2,0,1,1,2.4,0V66.11a3.61,3.61,0,0,0,3.61,3.6H22.69V49.43a6,6,0,0,1,6-6H43.42a6,6,0,0,1,6,6V64.9a1.2,1.2,0,1,1-2.4,0V49.43a3.61,3.61,0,0,0-3.61-3.61H28.7a3.61,3.61,0,0,0-3.6,3.61V69.71h9.76V50.78a1.2,1.2,0,1,1,2.4,0V69.71H62.5a3.61,3.61,0,0,0,3.61-3.6V40.72a1.2,1.2,0,1,1,2.4,0ZM7.82,19.23A1.2,1.2,0,0,0,9,20.43c65.39,0,62.15.12,62.63-.25a1.22,1.22,0,0,0,.46-.78c.06-.49.5.7-7.9-18.68A1.19,1.19,0,0,0,63.11,0H9a1.19,1.19,0,0,0-1.1.72L.1,18.75C0,19.07,0,18.57,0,26.69a9.91,9.91,0,0,0,18.62,4.72,9.92,9.92,0,0,0,17.43,0,9.92,9.92,0,0,0,17.43,0,9.91,9.91,0,0,0,18.63-4.72,1.2,1.2,0,1,0-2.4,0,7.52,7.52,0,0,1-15,0,1.2,1.2,0,1,0-2.4,0,7.52,7.52,0,0,1-15,0,1.2,1.2,0,1,0-2.4,0,7.51,7.51,0,1,1-15-.06,1.21,1.21,0,1,0-2.41,0,7.51,7.51,0,1,1-15,.06V19.48L9.81,2.4H62.32L69.09,18H9a1.2,1.2,0,0,0-1.2,1.2Z" fill="#bea07d"/></g></g></svg>