<svg xmlns="http://www.w3.org/2000/svg" viewBox="0 0 52 52"><g id="Capa_2" data-name="Capa 2"><g id="Capa_1-2" data-name="Capa 1"><circle cx="26" cy="26" r="25" fill="none" stroke="#d6d6d6" stroke-miterlimit="10" stroke-width="2"/><path d="M11.4,25.78l16.84-6.93c1.66-.73,7.3-3,7.3-3s2.6-1,2.38,1.45c-.07,1-.65,4.55-1.23,8.38L34.89,37s-.15,1.66-1.38,2-3.25-1-3.61-1.3-5.42-3.47-7.3-5.06a1.37,1.37,0,0,1,.07-2.31c2.61-2.38,5.71-5.34,7.59-7.22.87-.87,1.74-2.89-1.88-.44L18.19,29.47a4.24,4.24,0,0,1-3.32.07c-2.17-.65-4.7-1.52-4.7-1.52s-1.73-1.08,1.23-2.24Z" fill="#d6d6d6" stroke="#d6d6d6" stroke-miterlimit="10" stroke-width="0.75"/></g></g></svg>