<svg xmlns="http://www.w3.org/2000/svg" viewBox="0 0 46.96 46.96"><g id="Capa_2" data-name="Capa 2"><g id="Capa_1-2" data-name="Capa 1"><path d="M23.48,0A23.49,23.49,0,0,0,3.55,35.91C2.63,39.16,1,45.3.93,45.37a.9.9,0,0,0,.25.88.92.92,0,0,0,.89.22l9.31-2.87A23.48,23.48,0,1,0,23.48,0Zm0,45.15A21.6,21.6,0,0,1,12,41.85a1,1,0,0,0-.48-.13.75.75,0,0,0-.26,0l-8.13,2.5c.6-2.18,1.67-6.08,2.29-8.24a.9.9,0,0,0-.11-.75,21.68,21.68,0,1,1,18.19,9.88Z" fill="#d6d6d6"/><path d="M38.82,29c-1.67-.93-3.09-1.85-4.13-2.53a20.49,20.49,0,0,0-1.78-1.1,2,2,0,0,0-2.39.17.81.81,0,0,0-.12.14c-1.21,1.82-2.8,3.57-3.26,3.66a21.4,21.4,0,0,1-5.56-3.6c-2.55-2.12-4.15-4.16-4.39-5.54,1.63-1.69,2.22-2.75,2.22-4s-2.9-6.43-3.42-7-1.71-.6-3.52-.24a.92.92,0,0,0-.47.24c-.21.23-5.35,5.46-2.91,11.81,2.68,7,9.55,15,18.32,16.37a18.87,18.87,0,0,0,2.8.22c5.16,0,8.2-2.6,9.06-7.74a.91.91,0,0,0-.45-.94ZM27.68,35.68c-9.27-1.39-15.11-10.57-16.9-15.23s1.5-8.75,2.32-9.68a6.87,6.87,0,0,1,1.67-.12,33.58,33.58,0,0,1,2.84,5.6c0,.48-.15,1.14-2,3a.91.91,0,0,0-.27.64c0,4.73,10,11.29,11.74,11.29,1.54,0,3.54-2.59,4.68-4.27a.87.87,0,0,1,.33.1c.33.17.89.54,1.6,1,.95.62,2.2,1.43,3.67,2.28-.67,3.22-2.54,6.49-9.69,5.41Z" fill="#d6d6d6"/></g></g></svg>